<svg width="96" height="30" viewBox="0 0 96 30" fill="none" xmlns="http://www.w3.org/2000/svg">
<mask id="path-1-inside-1_1801_248" fill="white">
<path d="M32.5682 18.9312L35.6777 22.3771L38.8907 18.9541H41.465V20.0118L37.4385 24.3157L41.465 28.9173V18.9541H48.7326C50.1071 18.9541 52.1226 19.5683 52.1226 22.323C52.1226 26.1875 49.4706 26.2333 48.0183 26.2333H44.2443V29.975H38.8648L35.5784 26.3083L32.2122 29.9479H21.5158V18.9291H32.5682V18.9312ZM65.4947 18.9312H74.6612V21.3069H68.2999V23.3703H74.4842V25.4609H68.2999V27.643H74.6612V29.95H65.4947V18.9312ZM56.2548 29.9771H53.4496V18.9561H60.741C62.1198 18.9561 64.1072 19.5475 64.1072 21.9066C64.1072 23.2392 63.6993 24.2199 62.1694 24.959C63.4944 25.1069 64.0058 25.9439 64.0058 27.7138L64.1072 29.9771H61.3775L61.302 27.9574C61.2783 27.0246 60.8942 26.0897 59.9274 26.0897H56.2548V29.9771ZM92.2648 23.2267C95.7152 23.3933 96 25.0569 96 26.8268C96 28.8923 94.2414 30 92.405 30H86.5163V27.6409H91.106C91.885 27.6409 93.0438 27.6409 93.0438 26.579C93.0438 26.0751 92.8388 25.7565 92.0102 25.6691C91.3663 25.6087 90.7209 25.5656 90.0746 25.54C86.9608 25.4609 86.2379 23.9679 86.2379 22.1481C86.2379 20.0826 87.742 18.952 89.5783 18.952H95.467V21.3152H91.1578C90.1782 21.3277 89.1187 21.2028 89.1187 22.2751C89.1187 22.9497 89.643 23.0851 90.3033 23.1496C90.532 23.1517 92.0619 23.2267 92.2648 23.2267ZM81.7604 23.2267C85.2087 23.3933 85.4957 25.0569 85.4957 26.8268C85.4957 28.8923 83.7349 30 81.9007 30H76.0098V27.6409H80.5995C81.3763 27.6409 82.5394 27.6409 82.5394 26.579C82.5394 26.0751 82.3344 25.7565 81.5058 25.6691C81.1347 25.6191 79.7709 25.5441 79.5702 25.54C76.4565 25.4609 75.7336 23.9679 75.7336 22.1481C75.7336 20.0826 77.2376 18.952 79.0718 18.952H84.9627V21.3152H80.6535C79.6716 21.3277 78.6143 21.2028 78.6143 22.2751C78.6143 22.9497 79.1365 23.0851 79.8011 23.1496C80.0277 23.1517 81.5576 23.2267 81.7604 23.2267ZM44.8053 11.0335H42.0001V0.0124941H49.2915C50.6682 0.0124941 52.6599 0.603832 52.6599 2.96294C52.6599 4.29345 52.252 5.27832 50.7221 6.01541C52.047 6.16324 52.5584 7.00028 52.5584 8.77013L52.6599 11.0335H49.9323L49.8547 9.01582C49.8288 8.08093 49.449 7.14811 48.478 7.14811H44.8075V11.0335H44.8053ZM54.0883 11.0335H56.8914V0H54.0883V11.0335ZM31.2282 0.0124941H40.3925V2.38617H34.0377V4.45378H40.2178V6.54636H34.0377V8.72224H40.3925V11.0335H31.2282V0.0124941ZM10.7611 11.0335H16.4082V2.85466L20.1542 11.0335H22.7048L26.5392 2.99001V11.0335H29.3423V0.0124941H24.8691L21.4273 7.4063L17.9985 0.0124941H13.6008V10.6274L8.70471 0.0124941H4.99755L0 11.0335H2.95839L4.05242 8.5744H9.64769L10.7611 11.0335ZM73.0277 8.58065H67.4346L66.3384 11.0397H62.6398C59.5304 11.0397 58.1515 8.52443 58.2184 5.47404C58.3134 0.94739 61.0862 0.00624707 62.3615 0.00624707H66.0212V2.40492H64.2884C62.4262 2.40492 60.974 2.59231 60.974 5.17421V5.97376C60.9869 7.91643 62.0421 8.37659 62.7175 8.51194C62.8837 8.54942 63.1901 8.56399 63.3023 8.55566L64.515 8.54942L68.3775 0.0124941H72.089L76.8686 10.3567V0.00624707H81.0095L85.7395 7.63742V0.00624707H88.5425V11.0397H84.7188L79.6716 2.96918V11.0397H74.139L73.0277 8.58065Z"/>
</mask>
<path d="M32.5682 18.9312L35.6777 22.3771L38.8907 18.9541H41.465V20.0118L37.4385 24.3157L41.465 28.9173V18.9541H48.7326C50.1071 18.9541 52.1226 19.5683 52.1226 22.323C52.1226 26.1875 49.4706 26.2333 48.0183 26.2333H44.2443V29.975H38.8648L35.5784 26.3083L32.2122 29.9479H21.5158V18.9291H32.5682V18.9312ZM65.4947 18.9312H74.6612V21.3069H68.2999V23.3703H74.4842V25.4609H68.2999V27.643H74.6612V29.95H65.4947V18.9312ZM56.2548 29.9771H53.4496V18.9561H60.741C62.1198 18.9561 64.1072 19.5475 64.1072 21.9066C64.1072 23.2392 63.6993 24.2199 62.1694 24.959C63.4944 25.1069 64.0058 25.9439 64.0058 27.7138L64.1072 29.9771H61.3775L61.302 27.9574C61.2783 27.0246 60.8942 26.0897 59.9274 26.0897H56.2548V29.9771ZM92.2648 23.2267C95.7152 23.3933 96 25.0569 96 26.8268C96 28.8923 94.2414 30 92.405 30H86.5163V27.6409H91.106C91.885 27.6409 93.0438 27.6409 93.0438 26.579C93.0438 26.0751 92.8388 25.7565 92.0102 25.6691C91.3663 25.6087 90.7209 25.5656 90.0746 25.54C86.9608 25.4609 86.2379 23.9679 86.2379 22.1481C86.2379 20.0826 87.742 18.952 89.5783 18.952H95.467V21.3152H91.1578C90.1782 21.3277 89.1187 21.2028 89.1187 22.2751C89.1187 22.9497 89.643 23.0851 90.3033 23.1496C90.532 23.1517 92.0619 23.2267 92.2648 23.2267ZM81.7604 23.2267C85.2087 23.3933 85.4957 25.0569 85.4957 26.8268C85.4957 28.8923 83.7349 30 81.9007 30H76.0098V27.6409H80.5995C81.3763 27.6409 82.5394 27.6409 82.5394 26.579C82.5394 26.0751 82.3344 25.7565 81.5058 25.6691C81.1347 25.6191 79.7709 25.5441 79.5702 25.54C76.4565 25.4609 75.7336 23.9679 75.7336 22.1481C75.7336 20.0826 77.2376 18.952 79.0718 18.952H84.9627V21.3152H80.6535C79.6716 21.3277 78.6143 21.2028 78.6143 22.2751C78.6143 22.9497 79.1365 23.0851 79.8011 23.1496C80.0277 23.1517 81.5576 23.2267 81.7604 23.2267ZM44.8053 11.0335H42.0001V0.0124941H49.2915C50.6682 0.0124941 52.6599 0.603832 52.6599 2.96294C52.6599 4.29345 52.252 5.27832 50.7221 6.01541C52.047 6.16324 52.5584 7.00028 52.5584 8.77013L52.6599 11.0335H49.9323L49.8547 9.01582C49.8288 8.08093 49.449 7.14811 48.478 7.14811H44.8075V11.0335H44.8053ZM54.0883 11.0335H56.8914V0H54.0883V11.0335ZM31.2282 0.0124941H40.3925V2.38617H34.0377V4.45378H40.2178V6.54636H34.0377V8.72224H40.3925V11.0335H31.2282V0.0124941ZM10.7611 11.0335H16.4082V2.85466L20.1542 11.0335H22.7048L26.5392 2.99001V11.0335H29.3423V0.0124941H24.8691L21.4273 7.4063L17.9985 0.0124941H13.6008V10.6274L8.70471 0.0124941H4.99755L0 11.0335H2.95839L4.05242 8.5744H9.64769L10.7611 11.0335ZM73.0277 8.58065H67.4346L66.3384 11.0397H62.6398C59.5304 11.0397 58.1515 8.52443 58.2184 5.47404C58.3134 0.94739 61.0862 0.00624707 62.3615 0.00624707H66.0212V2.40492H64.2884C62.4262 2.40492 60.974 2.59231 60.974 5.17421V5.97376C60.9869 7.91643 62.0421 8.37659 62.7175 8.51194C62.8837 8.54942 63.1901 8.56399 63.3023 8.55566L64.515 8.54942L68.3775 0.0124941H72.089L76.8686 10.3567V0.00624707H81.0095L85.7395 7.63742V0.00624707H88.5425V11.0397H84.7188L79.6716 2.96918V11.0397H74.139L73.0277 8.58065Z" fill="#FCFBFB"/>
<path d="M32.5682 18.9312H31.5682V19.3156L31.8258 19.6011L32.5682 18.9312ZM35.6777 22.3771L34.9352 23.0471L35.6632 23.8538L36.4068 23.0615L35.6777 22.3771ZM38.8907 18.9541V17.9541H38.4578L38.1616 18.2697L38.8907 18.9541ZM41.465 20.0118L42.1952 20.695L42.465 20.4066V20.0118H41.465ZM37.4385 24.3157L36.7082 23.6325L36.0901 24.2932L36.6859 24.9742L37.4385 24.3157ZM41.465 28.9173L40.7124 29.5758L42.465 31.5787V28.9173H41.465ZM44.2443 26.2333V25.2333H43.2443V26.2333H44.2443ZM44.2443 29.975V30.975H45.2443V29.975H44.2443ZM38.8648 29.975L38.1201 30.6424L38.4182 30.975H38.8648V29.975ZM35.5784 26.3083L36.3231 25.6409L35.59 24.823L34.8443 25.6293L35.5784 26.3083ZM32.2122 29.9479V30.9479H32.6494L32.9463 30.6269L32.2122 29.9479ZM21.5158 29.9479H20.5158V30.9479H21.5158V29.9479ZM21.5158 18.9291V17.9291H20.5158V18.9291H21.5158ZM32.5682 18.9291H33.5682V17.9291H32.5682V18.9291ZM65.4947 18.9312V17.9312H64.4947V18.9312H65.4947ZM74.6612 18.9312H75.6612V17.9312H74.6612V18.9312ZM74.6612 21.3069V22.3069H75.6612V21.3069H74.6612ZM68.2999 21.3069V20.3069H67.2999V21.3069H68.2999ZM68.2999 23.3703H67.2999V24.3703H68.2999V23.3703ZM74.4842 23.3703H75.4842V22.3703H74.4842V23.3703ZM74.4842 25.4609V26.4609H75.4842V25.4609H74.4842ZM68.2999 25.4609V24.4609H67.2999V25.4609H68.2999ZM68.2999 27.643H67.2999V28.643H68.2999V27.643ZM74.6612 27.643H75.6612V26.643H74.6612V27.643ZM74.6612 29.95V30.95H75.6612V29.95H74.6612ZM65.4947 29.95H64.4947V30.95H65.4947V29.95ZM56.2548 29.9771V30.9771H57.2548V29.9771H56.2548ZM53.4496 29.9771H52.4496V30.9771H53.4496V29.9771ZM53.4496 18.9561V17.9561H52.4496V18.9561H53.4496ZM62.1694 24.959L61.7344 24.0586L58.6102 25.5681L62.0585 25.9529L62.1694 24.959ZM64.0058 27.7138H63.0058V27.7362L63.0068 27.7585L64.0058 27.7138ZM64.1072 29.9771V30.9771H65.153L65.1062 29.9323L64.1072 29.9771ZM61.3775 29.9771L60.3782 30.0145L60.4142 30.9771H61.3775V29.9771ZM61.302 27.9574L60.3022 27.9828L60.3027 27.9948L61.302 27.9574ZM56.2548 26.0897V25.0897H55.2548V26.0897H56.2548ZM92.2648 23.2267L92.313 22.2278L92.2889 22.2267H92.2648V23.2267ZM86.5163 30H85.5163V31H86.5163V30ZM86.5163 27.6409V26.6409H85.5163V27.6409H86.5163ZM92.0102 25.6691L92.1151 24.6745L92.1035 24.6734L92.0102 25.6691ZM90.0746 25.54L90.1143 24.5408L90.1071 24.5405L90.1 24.5403L90.0746 25.54ZM95.467 18.952H96.467V17.952H95.467V18.952ZM95.467 21.3152V22.3152H96.467V21.3152H95.467ZM91.1578 21.3152V20.3152L91.1451 20.3153L91.1578 21.3152ZM90.3033 23.1496L90.206 24.1449L90.25 24.1492L90.2942 24.1496L90.3033 23.1496ZM81.7604 23.2267L81.8087 22.2278L81.7846 22.2267H81.7604V23.2267ZM76.0098 30H75.0098V31H76.0098V30ZM76.0098 27.6409V26.6409H75.0098V27.6409H76.0098ZM81.5058 25.6691L81.3724 26.6601L81.3866 26.662L81.4009 26.6635L81.5058 25.6691ZM79.5702 25.54L79.5448 26.5397L79.5495 26.5398L79.5702 25.54ZM84.9627 18.952H85.9627V17.952H84.9627V18.952ZM84.9627 21.3152V22.3152H85.9627V21.3152H84.9627ZM80.6535 21.3152V20.3152L80.6407 20.3153L80.6535 21.3152ZM79.8011 23.1496L79.7045 24.145L79.7481 24.1492L79.7919 24.1496L79.8011 23.1496ZM42.0001 11.0335H41.0001V12.0335H42.0001V11.0335ZM42.0001 0.0124941V-0.987506H41.0001V0.0124941H42.0001ZM50.7221 6.01541L50.2881 5.11451L47.1557 6.62367L50.6112 7.00924L50.7221 6.01541ZM52.5584 8.77013H51.5584V8.79252L51.5594 8.81489L52.5584 8.77013ZM52.6599 11.0335V12.0335H53.7057L53.6588 10.9887L52.6599 11.0335ZM49.9323 11.0335L48.9331 11.0719L48.9701 12.0335H49.9323V11.0335ZM49.8547 9.01582L48.855 9.04351L48.8554 9.0543L49.8547 9.01582ZM44.8075 7.14811V6.14811H43.8075V7.14811H44.8075ZM44.8075 11.0335V12.0335H45.8075V11.0335H44.8075ZM54.0883 11.0335H53.0883V12.0335H54.0883V11.0335ZM56.8914 11.0335V12.0335H57.8914V11.0335H56.8914ZM56.8914 0H57.8914V-1H56.8914V0ZM54.0883 0V-1H53.0883V0H54.0883ZM31.2282 0.0124941V-0.987506H30.2282V0.0124941H31.2282ZM40.3925 0.0124941H41.3925V-0.987506H40.3925V0.0124941ZM40.3925 2.38617V3.38617H41.3925V2.38617H40.3925ZM34.0377 2.38617V1.38617H33.0377V2.38617H34.0377ZM34.0377 4.45378H33.0377V5.45378H34.0377V4.45378ZM40.2178 4.45378H41.2178V3.45378H40.2178V4.45378ZM40.2178 6.54636V7.54636H41.2178V6.54636H40.2178ZM34.0377 6.54636V5.54636H33.0377V6.54636H34.0377ZM34.0377 8.72224H33.0377V9.72224H34.0377V8.72224ZM40.3925 8.72224H41.3925V7.72224H40.3925V8.72224ZM40.3925 11.0335V12.0335H41.3925V11.0335H40.3925ZM31.2282 11.0335H30.2282V12.0335H31.2282V11.0335ZM10.7611 11.0335L9.85016 11.4459L10.1162 12.0335H10.7611V11.0335ZM16.4082 11.0335V12.0335H17.4082V11.0335H16.4082ZM16.4082 2.85466L17.3174 2.43825L15.4082 2.85466H16.4082ZM20.1542 11.0335L19.245 11.4499L19.5123 12.0335H20.1542V11.0335ZM22.7048 11.0335V12.0335H23.3359L23.6074 11.4638L22.7048 11.0335ZM26.5392 2.99001H27.5392L25.6366 2.55968L26.5392 2.99001ZM26.5392 11.0335H25.5392V12.0335H26.5392V11.0335ZM29.3423 11.0335V12.0335H30.3423V11.0335H29.3423ZM29.3423 0.0124941H30.3423V-0.987506H29.3423V0.0124941ZM24.8691 0.0124941V-0.987506H24.2315L23.9625 -0.409516L24.8691 0.0124941ZM21.4273 7.4063L20.5201 7.827L21.4256 9.77958L22.3339 7.82831L21.4273 7.4063ZM17.9985 0.0124941L18.9057 -0.40821L18.6371 -0.987506H17.9985V0.0124941ZM13.6008 0.0124941V-0.987506H12.6008V0.0124941H13.6008ZM13.6008 10.6274L12.6928 11.0463L14.6008 10.6274H13.6008ZM8.70471 0.0124941L9.61277 -0.406348L9.34471 -0.987506H8.70471V0.0124941ZM4.99755 0.0124941V-0.987506H4.353L4.08681 -0.400488L4.99755 0.0124941ZM0 11.0335L-0.910739 10.6205L-1.55147 12.0335H0V11.0335ZM2.95839 11.0335V12.0335H3.608L3.87205 11.4399L2.95839 11.0335ZM4.05242 8.5744V7.5744H3.40281L3.13876 8.16792L4.05242 8.5744ZM9.64769 8.5744L10.5587 8.16192L10.2926 7.5744H9.64769V8.5744ZM73.0277 8.58065L73.9389 8.16883L73.6731 7.58065H73.0277V8.58065ZM67.4346 8.58065V7.58065H66.7855L66.5212 8.1735L67.4346 8.58065ZM66.3384 11.0397V12.0397H66.9875L67.2517 11.4469L66.3384 11.0397ZM58.2184 5.47404L59.2182 5.49597L59.2182 5.49501L58.2184 5.47404ZM66.0212 0.00624707H67.0212V-0.993753H66.0212V0.00624707ZM66.0212 2.40492V3.40492H67.0212V2.40492H66.0212ZM60.974 5.97376L59.974 5.97376L59.974 5.98043L60.974 5.97376ZM62.7175 8.51194L62.9376 7.53645L62.9258 7.5338L62.914 7.53143L62.7175 8.51194ZM63.3023 8.55566L63.2972 7.55567L63.2627 7.55585L63.2283 7.5584L63.3023 8.55566ZM64.515 8.54942L64.5202 9.54941L65.1617 9.5461L65.4261 8.96164L64.515 8.54942ZM68.3775 0.0124941V-0.987506H67.7324L67.4665 -0.399726L68.3775 0.0124941ZM72.089 0.0124941L72.9968 -0.40695L72.7285 -0.987506H72.089V0.0124941ZM76.8686 10.3567L75.9608 10.7762L77.8686 10.3567H76.8686ZM76.8686 0.00624707V-0.993753H75.8686V0.00624707H76.8686ZM81.0095 0.00624707L81.8595 -0.520584L81.5662 -0.993753H81.0095V0.00624707ZM85.7395 7.63742L84.8895 8.16425L86.7395 11.1489V7.63742H85.7395ZM85.7395 0.00624707V-0.993753H84.7395V0.00624707H85.7395ZM88.5425 0.00624707H89.5425V-0.993753H88.5425V0.00624707ZM88.5425 11.0397V12.0397H89.5425V11.0397H88.5425ZM84.7188 11.0397L83.871 11.5699L84.1648 12.0397H84.7188V11.0397ZM79.6716 2.96918L80.5195 2.43895L78.6716 -0.515786V2.96918H79.6716ZM79.6716 11.0397V12.0397H80.6716V11.0397H79.6716ZM74.139 11.0397L73.2277 11.4515L73.4935 12.0397H74.139V11.0397ZM31.8258 19.6011L34.9352 23.0471L36.4201 21.7072L33.3107 18.2612L31.8258 19.6011ZM36.4068 23.0615L39.6198 19.6384L38.1616 18.2697L34.9486 21.6928L36.4068 23.0615ZM38.8907 19.9541H41.465V17.9541H38.8907V19.9541ZM40.465 18.9541V20.0118H42.465V18.9541H40.465ZM40.7347 19.3286L36.7082 23.6325L38.1687 24.9988L42.1952 20.695L40.7347 19.3286ZM36.6859 24.9742L40.7124 29.5758L42.2176 28.2588L38.191 23.6571L36.6859 24.9742ZM42.465 28.9173V18.9541H40.465V28.9173H42.465ZM41.465 19.9541H48.7326V17.9541H41.465V19.9541ZM48.7326 19.9541C49.2984 19.9541 49.9077 20.0847 50.3498 20.4105C50.7391 20.6974 51.1226 21.2233 51.1226 22.323H53.1226C53.1226 20.668 52.4983 19.5094 51.5363 18.8005C50.627 18.1305 49.5413 17.9541 48.7326 17.9541V19.9541ZM51.1226 22.323C51.1226 23.9982 50.5717 24.5939 50.1097 24.8644C49.5315 25.203 48.7748 25.2333 48.0183 25.2333V27.2333C48.7141 27.2333 50.0095 27.2408 51.1203 26.5903C52.3474 25.8718 53.1226 24.5123 53.1226 22.323H51.1226ZM48.0183 25.2333H44.2443V27.2333H48.0183V25.2333ZM43.2443 26.2333V29.975H45.2443V26.2333H43.2443ZM44.2443 28.975H38.8648V30.975H44.2443V28.975ZM39.6095 29.3076L36.3231 25.6409L34.8337 26.9757L38.1201 30.6424L39.6095 29.3076ZM34.8443 25.6293L31.478 29.2689L32.9463 30.6269L36.3126 26.9873L34.8443 25.6293ZM32.2122 28.9479H21.5158V30.9479H32.2122V28.9479ZM22.5158 29.9479V18.9291H20.5158V29.9479H22.5158ZM21.5158 19.9291H32.5682V17.9291H21.5158V19.9291ZM31.5682 18.9291V18.9312H33.5682V18.9291H31.5682ZM65.4947 19.9312H74.6612V17.9312H65.4947V19.9312ZM73.6612 18.9312V21.3069H75.6612V18.9312H73.6612ZM74.6612 20.3069H68.2999V22.3069H74.6612V20.3069ZM67.2999 21.3069V23.3703H69.2999V21.3069H67.2999ZM68.2999 24.3703H74.4842V22.3703H68.2999V24.3703ZM73.4842 23.3703V25.4609H75.4842V23.3703H73.4842ZM74.4842 24.4609H68.2999V26.4609H74.4842V24.4609ZM67.2999 25.4609V27.643H69.2999V25.4609H67.2999ZM68.2999 28.643H74.6612V26.643H68.2999V28.643ZM73.6612 27.643V29.95H75.6612V27.643H73.6612ZM74.6612 28.95H65.4947V30.95H74.6612V28.95ZM66.4947 29.95V18.9312H64.4947V29.95H66.4947ZM56.2548 28.9771H53.4496V30.9771H56.2548V28.9771ZM54.4496 29.9771V18.9561H52.4496V29.9771H54.4496ZM53.4496 19.9561H60.741V17.9561H53.4496V19.9561ZM60.741 19.9561C61.3162 19.9561 61.941 20.084 62.3894 20.3807C62.7781 20.6379 63.1072 21.0619 63.1072 21.9066H65.1072C65.1072 20.3921 64.4426 19.341 63.4929 18.7127C62.6029 18.1239 61.5446 17.9561 60.741 17.9561V19.9561ZM63.1072 21.9066C63.1072 22.4765 63.0189 22.8581 62.8476 23.1526C62.6806 23.4398 62.3726 23.7503 61.7344 24.0586L62.6045 25.8595C63.4962 25.4286 64.1571 24.8792 64.5765 24.1581C64.9916 23.4443 65.1072 22.6693 65.1072 21.9066H63.1072ZM62.0585 25.9529C62.5096 26.0032 62.6589 26.14 62.7474 26.2753C62.8796 26.4775 63.0058 26.8897 63.0058 27.7138H65.0058C65.0058 26.768 64.8762 25.8767 64.4215 25.181C63.923 24.4184 63.1542 24.0627 62.2803 23.9652L62.0585 25.9529ZM63.0068 27.7585L63.1082 30.0219L65.1062 29.9323L65.0048 27.669L63.0068 27.7585ZM64.1072 28.9771H61.3775V30.9771H64.1072V28.9771ZM62.3768 29.9397L62.3013 27.92L60.3027 27.9948L60.3782 30.0145L62.3768 29.9397ZM62.3017 27.9319C62.2871 27.36 62.1634 26.6967 61.8154 26.1422C61.4377 25.5404 60.7997 25.0897 59.9274 25.0897V27.0897C60.0008 27.0897 60.028 27.1053 60.0365 27.1104C60.0495 27.1181 60.0808 27.1407 60.1213 27.2052C60.213 27.3514 60.2931 27.6219 60.3023 27.9828L62.3017 27.9319ZM59.9274 25.0897H56.2548V27.0897H59.9274V25.0897ZM55.2548 26.0897V29.9771H57.2548V26.0897H55.2548ZM92.2166 24.2255C93.8081 24.3023 94.3868 24.712 94.6316 25.0325C94.9111 25.3985 95 25.9421 95 26.8268H97C97 25.9416 96.9465 24.7685 96.221 23.8185C95.4607 22.8231 94.1719 22.3176 92.313 22.2278L92.2166 24.2255ZM95 26.8268C95 27.5436 94.7081 28.054 94.2666 28.4069C93.8023 28.7782 93.1343 29 92.405 29V31C93.5121 31 94.6416 30.6679 95.5157 29.969C96.4126 29.2517 97 28.1754 97 26.8268H95ZM92.405 29H86.5163V31H92.405V29ZM87.5163 30V27.6409H85.5163V30H87.5163ZM86.5163 28.6409H91.106V26.6409H86.5163V28.6409ZM91.106 28.6409C91.4531 28.6409 92.1165 28.6512 92.6914 28.4541C93.0001 28.3482 93.3532 28.1615 93.628 27.8218C93.9137 27.4687 94.0438 27.0379 94.0438 26.579H92.0438C92.0438 26.651 92.029 26.6184 92.0731 26.564C92.1062 26.523 92.121 26.5353 92.0426 26.5622C91.9618 26.5899 91.8379 26.6138 91.6616 26.6272C91.4872 26.6404 91.306 26.6409 91.106 26.6409V28.6409ZM94.0438 26.579C94.0438 26.2034 93.9679 25.6804 93.5419 25.2579C93.1468 24.866 92.6131 24.7272 92.1151 24.6746L91.9052 26.6635C92.0582 26.6797 92.14 26.7025 92.1754 26.7156C92.2069 26.7272 92.1784 26.7224 92.1335 26.6779C92.1116 26.6561 92.0915 26.6305 92.0751 26.6029C92.059 26.5756 92.0498 26.5523 92.045 26.537C92.0366 26.5104 92.0438 26.5157 92.0438 26.579H94.0438ZM92.1035 24.6734C91.4418 24.6114 90.7785 24.5671 90.1143 24.5408L90.0349 26.5392C90.6633 26.5641 91.2908 26.606 91.9168 26.6647L92.1035 24.6734ZM90.1 24.5403C88.6823 24.5043 88.034 24.1512 87.7196 23.8145C87.4006 23.4727 87.2379 22.9488 87.2379 22.1481H85.2379C85.2379 23.1673 85.4367 24.2997 86.2576 25.1792C87.0831 26.0636 88.3531 26.4966 90.0492 26.5397L90.1 24.5403ZM87.2379 22.1481C87.2379 21.3757 87.5101 20.8567 87.8856 20.5213C88.2762 20.1725 88.8597 19.952 89.5783 19.952V17.952C88.4606 17.952 87.3739 18.2967 86.5534 19.0296C85.7178 19.7759 85.2379 20.855 85.2379 22.1481H87.2379ZM89.5783 19.952H95.467V17.952H89.5783V19.952ZM94.467 18.952V21.3152H96.467V18.952H94.467ZM95.467 20.3152H91.1578V22.3152H95.467V20.3152ZM91.1451 20.3153C90.9634 20.3176 90.629 20.3135 90.3972 20.3201C90.1375 20.3276 89.8194 20.349 89.5107 20.4322C89.1954 20.5171 88.8182 20.6857 88.5274 21.039C88.2294 21.4011 88.1187 21.8391 88.1187 22.2751H90.1187C90.1187 22.175 90.1404 22.2265 90.0716 22.31C90.0101 22.3848 89.959 22.3827 90.031 22.3633C90.1097 22.3421 90.2401 22.3254 90.4546 22.3193C90.697 22.3123 90.8624 22.3191 91.1706 22.3152L91.1451 20.3153ZM88.1187 22.2751C88.1187 22.5742 88.1774 22.8822 88.3339 23.1678C88.4926 23.4574 88.7179 23.6622 88.9547 23.8021C89.3795 24.0531 89.8812 24.1131 90.206 24.1449L90.4006 22.1544C90.2515 22.1398 90.1431 22.1241 90.0615 22.1055C89.9783 22.0866 89.9589 22.0724 89.9721 22.0802C89.9952 22.0939 90.0482 22.1343 90.0879 22.2068C90.1254 22.2753 90.1187 22.3133 90.1187 22.2751H88.1187ZM90.2942 24.1496C90.3859 24.1504 90.7975 24.1683 91.2503 24.188C91.6662 24.2061 92.1347 24.2267 92.2648 24.2267V22.2267C92.2655 22.2267 92.2636 22.2267 92.258 22.2266C92.2527 22.2265 92.2455 22.2264 92.2364 22.2261C92.2179 22.2257 92.1941 22.225 92.1649 22.224C92.1066 22.2221 92.0319 22.2192 91.9451 22.2157C91.7715 22.2088 91.5559 22.1994 91.3373 22.1899C90.9171 22.1716 90.4495 22.1509 90.3124 22.1497L90.2942 24.1496ZM81.7122 24.2255C83.3024 24.3023 83.8814 24.7119 84.1266 25.0327C84.4063 25.3988 84.4957 25.9427 84.4957 26.8268H86.4957C86.4957 25.941 86.4415 24.7681 85.7157 23.8183C84.9553 22.8232 83.6667 22.3176 81.8087 22.2278L81.7122 24.2255ZM84.4957 26.8268C84.4957 27.5432 84.2035 28.0536 83.7616 28.4068C83.2969 28.7783 82.6287 29 81.9007 29V31C83.0069 31 84.1362 30.6678 85.0104 29.9691C85.9074 29.2521 86.4957 28.1758 86.4957 26.8268H84.4957ZM81.9007 29H76.0098V31H81.9007V29ZM77.0098 30V27.6409H75.0098V30H77.0098ZM76.0098 28.6409H80.5995V26.6409H76.0098V28.6409ZM80.5995 28.6409C80.9458 28.6409 81.6092 28.6512 82.1846 28.4543C82.4932 28.3487 82.8468 28.1623 83.1221 27.823C83.4085 27.47 83.5394 27.0388 83.5394 26.579H81.5394C81.5394 26.6501 81.5249 26.6171 81.569 26.5628C81.602 26.5222 81.6162 26.5349 81.537 26.562C81.4555 26.5899 81.331 26.6138 81.1546 26.6272C80.98 26.6404 80.7989 26.6409 80.5995 26.6409V28.6409ZM83.5394 26.579C83.5394 26.2034 83.4635 25.6804 83.0375 25.2579C82.6425 24.866 82.1088 24.7272 81.6108 24.6746L81.4009 26.6635C81.5538 26.6797 81.6356 26.7025 81.671 26.7156C81.7026 26.7272 81.6741 26.7224 81.6291 26.6779C81.6072 26.6561 81.5872 26.6305 81.5708 26.6029C81.5546 26.5756 81.5455 26.5523 81.5407 26.537C81.5323 26.5104 81.5394 26.5157 81.5394 26.579H83.5394ZM81.6393 24.678C81.213 24.6206 79.8058 24.5447 79.591 24.5402L79.5495 26.5398C79.736 26.5436 81.0563 26.6176 81.3724 26.6601L81.6393 24.678ZM79.5956 24.5403C78.178 24.5043 77.5296 24.1512 77.2153 23.8145C76.8963 23.4727 76.7336 22.9488 76.7336 22.1481H74.7336C74.7336 23.1673 74.9324 24.2997 75.7532 25.1792C76.5788 26.0636 77.8487 26.4966 79.5448 26.5397L79.5956 24.5403ZM76.7336 22.1481C76.7336 21.3757 77.0058 20.8566 77.3812 20.5211C77.7715 20.1723 78.3545 19.952 79.0718 19.952V17.952C77.9549 17.952 76.8688 18.2969 76.0486 19.0298C75.2134 19.776 74.7336 20.855 74.7336 22.1481H76.7336ZM79.0718 19.952H84.9627V17.952H79.0718V19.952ZM83.9627 18.952V21.3152H85.9627V18.952H83.9627ZM84.9627 20.3152H80.6535V22.3152H84.9627V20.3152ZM80.6407 20.3153C80.4584 20.3176 80.124 20.3135 79.892 20.3201C79.6322 20.3276 79.3141 20.349 79.0054 20.4322C78.69 20.5173 78.3129 20.686 78.0223 21.0396C77.7247 21.4017 77.6143 21.8396 77.6143 22.2751H79.6143C79.6143 22.1745 79.6361 22.2258 79.5674 22.3094C79.5058 22.3845 79.4544 22.3826 79.5261 22.3633C79.6044 22.3421 79.7347 22.3254 79.9493 22.3193C80.1917 22.3123 80.3576 22.3191 80.6662 22.3152L80.6407 20.3153ZM77.6143 22.2751C77.6143 22.5735 77.6727 22.8813 77.8288 23.1669C77.9873 23.4568 78.2126 23.662 78.4498 23.8021C78.875 24.0534 79.3778 24.1132 79.7045 24.145L79.8978 22.1543C79.7476 22.1397 79.6386 22.124 79.5565 22.1054C79.4729 22.0864 79.4537 22.0723 79.4672 22.0802C79.4907 22.0941 79.544 22.1349 79.5838 22.2077C79.6212 22.2762 79.6143 22.314 79.6143 22.2751H77.6143ZM79.7919 24.1496C79.8826 24.1504 80.2936 24.1683 80.7462 24.188C81.1618 24.2061 81.6303 24.2267 81.7604 24.2267V22.2267C81.7612 22.2267 81.7593 22.2267 81.7536 22.2266C81.7483 22.2265 81.7412 22.2264 81.732 22.2261C81.7136 22.2257 81.6898 22.225 81.6606 22.224C81.6023 22.2221 81.5276 22.2192 81.4408 22.2157C81.2673 22.2088 81.0517 22.1994 80.8332 22.1899C80.4134 22.1716 79.9462 22.1509 79.8103 22.1497L79.7919 24.1496ZM44.8053 10.0335H42.0001V12.0335H44.8053V10.0335ZM43.0001 11.0335V0.0124941H41.0001V11.0335H43.0001ZM42.0001 1.01249H49.2915V-0.987506H42.0001V1.01249ZM49.2915 1.01249C49.8655 1.01249 50.4911 1.14033 50.9406 1.43736C51.3305 1.69495 51.6599 2.11917 51.6599 2.96294H53.6599C53.6599 1.4476 52.9934 0.396595 52.0432 -0.231262C51.1527 -0.819677 50.0942 -0.987506 49.2915 -0.987506V1.01249ZM51.6599 2.96294C51.6599 3.53166 51.5716 3.91405 51.4 4.20936C51.2329 4.49704 50.925 4.80765 50.2881 5.11451L51.1562 6.9163C52.0491 6.48608 52.7101 5.9357 53.1294 5.21405C53.5442 4.50002 53.6599 3.72472 53.6599 2.96294H51.6599ZM50.6112 7.00924C51.0623 7.05957 51.2116 7.19632 51.3001 7.33164C51.4323 7.53388 51.5584 7.94604 51.5584 8.77013H53.5584C53.5584 7.82436 53.4289 6.93308 52.9742 6.23738C52.4757 5.47477 51.7068 5.11908 50.833 5.02158L50.6112 7.00924ZM51.5594 8.81489L51.6609 11.0782L53.6588 10.9887L53.5574 8.72536L51.5594 8.81489ZM52.6599 10.0335H49.9323V12.0335H52.6599V10.0335ZM50.9316 10.995L50.8539 8.97735L48.8554 9.0543L48.9331 11.0719L50.9316 10.995ZM50.8543 8.98814C50.8385 8.41807 50.7158 7.75481 50.3679 7.20005C49.9894 6.59649 49.3504 6.14811 48.478 6.14811V8.14811C48.5536 8.14811 48.5816 8.16423 48.59 8.1692C48.6027 8.17668 48.6335 8.19881 48.6736 8.26272C48.7648 8.40809 48.8449 8.67868 48.855 9.04351L50.8543 8.98814ZM48.478 6.14811H44.8075V8.14811H48.478V6.14811ZM43.8075 7.14811V11.0335H45.8075V7.14811H43.8075ZM44.8075 10.0335H44.8053V12.0335H44.8075V10.0335ZM54.0883 12.0335H56.8914V10.0335H54.0883V12.0335ZM57.8914 11.0335V0H55.8914V11.0335H57.8914ZM56.8914 -1H54.0883V1H56.8914V-1ZM53.0883 0V11.0335H55.0883V0H53.0883ZM31.2282 1.01249H40.3925V-0.987506H31.2282V1.01249ZM39.3925 0.0124941V2.38617H41.3925V0.0124941H39.3925ZM40.3925 1.38617H34.0377V3.38617H40.3925V1.38617ZM33.0377 2.38617V4.45378H35.0377V2.38617H33.0377ZM34.0377 5.45378H40.2178V3.45378H34.0377V5.45378ZM39.2178 4.45378V6.54636H41.2178V4.45378H39.2178ZM40.2178 5.54636H34.0377V7.54636H40.2178V5.54636ZM33.0377 6.54636V8.72224H35.0377V6.54636H33.0377ZM34.0377 9.72224H40.3925V7.72224H34.0377V9.72224ZM39.3925 8.72224V11.0335H41.3925V8.72224H39.3925ZM40.3925 10.0335H31.2282V12.0335H40.3925V10.0335ZM32.2282 11.0335V0.0124941H30.2282V11.0335H32.2282ZM10.7611 12.0335H16.4082V10.0335H10.7611V12.0335ZM17.4082 11.0335V2.85466H15.4082V11.0335H17.4082ZM15.499 3.27108L19.245 11.4499L21.0634 10.617L17.3174 2.43825L15.499 3.27108ZM20.1542 12.0335H22.7048V10.0335H20.1542V12.0335ZM23.6074 11.4638L27.4419 3.42033L25.6366 2.55968L21.8021 10.6031L23.6074 11.4638ZM25.5392 2.99001V11.0335H27.5392V2.99001H25.5392ZM26.5392 12.0335H29.3423V10.0335H26.5392V12.0335ZM30.3423 11.0335V0.0124941H28.3423V11.0335H30.3423ZM29.3423 -0.987506H24.8691V1.01249H29.3423V-0.987506ZM23.9625 -0.409516L20.5207 6.98429L22.3339 7.82831L25.7757 0.434504L23.9625 -0.409516ZM22.3345 6.9856L18.9057 -0.40821L17.0913 0.433198L20.5201 7.827L22.3345 6.9856ZM17.9985 -0.987506H13.6008V1.01249H17.9985V-0.987506ZM12.6008 0.0124941V10.6274H14.6008V0.0124941H12.6008ZM14.5089 10.2086L9.61277 -0.406348L7.79665 0.431336L12.6928 11.0463L14.5089 10.2086ZM8.70471 -0.987506H4.99755V1.01249H8.70471V-0.987506ZM4.08681 -0.400488L-0.910739 10.6205L0.910739 11.4464L5.90829 0.425477L4.08681 -0.400488ZM0 12.0335H2.95839V10.0335H0V12.0335ZM3.87205 11.4399L4.96608 8.98089L3.13876 8.16792L2.04474 10.627L3.87205 11.4399ZM4.05242 9.5744H9.64769V7.5744H4.05242V9.5744ZM8.73672 8.98688L9.85016 11.4459L11.6721 10.621L10.5587 8.16192L8.73672 8.98688ZM73.0277 7.58065H67.4346V9.58065H73.0277V7.58065ZM66.5212 8.1735L65.425 10.6325L67.2517 11.4469L68.3479 8.9878L66.5212 8.1735ZM66.3384 10.0397H62.6398V12.0397H66.3384V10.0397ZM62.6398 10.0397C61.393 10.0397 60.5794 9.55467 60.0504 8.81765C59.4911 8.03846 59.1878 6.88348 59.2182 5.49597L57.2187 5.45212C57.1822 7.11499 57.5348 8.74284 58.4256 9.98388C59.3467 11.2671 60.7773 12.0397 62.6398 12.0397V10.0397ZM59.2182 5.49501C59.2612 3.44566 59.8998 2.35744 60.527 1.77613C61.1787 1.17223 61.9351 1.00625 62.3615 1.00625V-0.993753C61.5126 -0.993753 60.2449 -0.689161 59.1676 0.309172C58.066 1.33009 57.2706 2.97577 57.2187 5.45307L59.2182 5.49501ZM62.3615 1.00625H66.0212V-0.993753H62.3615V1.00625ZM65.0212 0.00624707V2.40492H67.0212V0.00624707H65.0212ZM66.0212 1.40492H64.2884V3.40492H66.0212V1.40492ZM64.2884 1.40492C63.3981 1.40492 62.2797 1.42948 61.4058 1.97156C60.4 2.59544 59.974 3.70014 59.974 5.17421H61.974C61.974 4.06638 62.2741 3.78643 62.46 3.67114C62.7778 3.47405 63.3165 3.40492 64.2884 3.40492V1.40492ZM59.974 5.17421V5.97376H61.974V5.17421H59.974ZM59.974 5.98043C59.9817 7.1385 60.3059 8.00255 60.8663 8.60295C61.4138 9.18949 62.0749 9.40304 62.521 9.49244L62.914 7.53143C62.6847 7.48549 62.4806 7.40129 62.3284 7.23825C62.1891 7.08906 61.9792 6.75169 61.974 5.9671L59.974 5.98043ZM62.4975 9.48743C62.6574 9.5235 62.8371 9.54049 62.9649 9.54884C63.0905 9.55706 63.2501 9.56229 63.3763 9.55292L63.2283 7.5584C63.2443 7.55722 63.2386 7.55833 63.2035 7.55775C63.174 7.55726 63.1363 7.55578 63.0954 7.55311C63.0545 7.55043 63.0156 7.5469 62.9832 7.54297C62.9477 7.53869 62.9339 7.53561 62.9376 7.53645L62.4975 9.48743ZM63.3075 9.55565L64.5202 9.54941L64.5099 7.54943L63.2972 7.55567L63.3075 9.55565ZM65.4261 8.96164L69.2886 0.424714L67.4665 -0.399726L63.6039 8.1372L65.4261 8.96164ZM68.3775 1.01249H72.089V-0.987506H68.3775V1.01249ZM71.1812 0.431939L75.9608 10.7762L77.7764 9.9373L72.9968 -0.40695L71.1812 0.431939ZM77.8686 10.3567V0.00624707H75.8686V10.3567H77.8686ZM76.8686 1.00625H81.0095V-0.993753H76.8686V1.00625ZM80.1595 0.533078L84.8895 8.16425L86.5895 7.11059L81.8595 -0.520584L80.1595 0.533078ZM86.7395 7.63742V0.00624707H84.7395V7.63742H86.7395ZM85.7395 1.00625H88.5425V-0.993753H85.7395V1.00625ZM87.5425 0.00624707V11.0397H89.5425V0.00624707H87.5425ZM88.5425 10.0397H84.7188V12.0397H88.5425V10.0397ZM85.5667 10.5095L80.5195 2.43895L78.8238 3.49942L83.871 11.5699L85.5667 10.5095ZM78.6716 2.96918V11.0397H80.6716V2.96918H78.6716ZM79.6716 10.0397H74.139V12.0397H79.6716V10.0397ZM75.0502 10.6279L73.9389 8.16883L72.1164 8.99246L73.2277 11.4515L75.0502 10.6279Z" fill="#FBFDFF" mask="url(#path-1-inside-1_1801_248)"/>
</svg>
